<?xml version="1.0" encoding="UTF-8" standalone="no"?>
<!-- Created with Inkscape (http://www.inkscape.org/) -->

<svg
   xmlns:dc="http://purl.org/dc/elements/1.1/"
   xmlns:cc="http://creativecommons.org/ns#"
   xmlns:rdf="http://www.w3.org/1999/02/22-rdf-syntax-ns#"
   xmlns:svg="http://www.w3.org/2000/svg"
   xmlns="http://www.w3.org/2000/svg"
   xmlns:sodipodi="http://sodipodi.sourceforge.net/DTD/sodipodi-0.dtd"
   xmlns:inkscape="http://www.inkscape.org/namespaces/inkscape"
   width="210mm"
   height="297mm"
   viewBox="0 0 744.09448819 1052.3622047"
   id="svg2"
   version="1.1"
   inkscape:version="0.91 r13725"
   sodipodi:docname="tree.svg"
   inkscape:export-filename="tree"
   inkscape:export-xdpi="245.33528"
   inkscape:export-ydpi="245.33528">
  <defs
     id="defs4" />
  <sodipodi:namedview
     id="base"
     pagecolor="#ffffff"
     bordercolor="#666666"
     borderopacity="1.0"
     inkscape:pageopacity="0.0"
     inkscape:pageshadow="2"
     inkscape:zoom="0.7"
     inkscape:cx="372.13736"
     inkscape:cy="482.8094"
     inkscape:document-units="px"
     inkscape:current-layer="layer1"
     showgrid="false"
     inkscape:window-width="645"
     inkscape:window-height="421"
     inkscape:window-x="1114"
     inkscape:window-y="163"
     inkscape:window-maximized="0" />
  <metadata
     id="metadata7">
    <rdf:RDF>
      <cc:Work
         rdf:about="">
        <dc:format>image/svg+xml</dc:format>
        <dc:type
           rdf:resource="http://purl.org/dc/dcmitype/StillImage" />
        <dc:title></dc:title>
      </cc:Work>
    </rdf:RDF>
  </metadata>
  <g
     inkscape:label="Layer 1"
     inkscape:groupmode="layer"
     id="layer1">
    <path
       style="fill:none;fill-rule:evenodd;stroke:#000000;stroke-width:1px;stroke-linecap:butt;stroke-linejoin:miter;stroke-opacity:1"
       d="m 322.14286,679.50506 c 18.57018,6.51933 31.68612,-6.59661 45.71428,-16.42857 9.68277,23.55936 43.51205,19.37659 49.64286,17.5 l -0.9878,-5.01647 c -16.15012,-29.16118 -11.49539,-58.32235 -17.22649,-87.48353 4.57981,0.43094 22.45564,-16.21388 21.42858,-17.14286 l -4.87373,-4.40826 c -1.58398,-1.4327 -12.55406,8.64052 -17.26913,7.97969 -1.60413,-21.36644 -2.46505,-43.54872 4.64285,-63.57143 4.66237,-13.1337 12.31823,-25.68612 23.92858,-34.28571 18.20037,-9.35857 40.43595,-4.58388 51.80674,-4.5562 9.73749,0.0237 35.34768,-1.83899 36.76469,-8.30094 L 497.5,463.79077 c 5.53128,-3.57744 11.10324,-11.29714 15,-16.78571 18.59682,-5.66647 29.478,-13.41346 40.71428,-20 10.96476,3.54476 19.13451,6.07509 26.32397,8.67603 l -0.5484,-4.91334 c 0,0 -17.26366,-6.36258 -19.8827,-9.38769 5.43794,-9.68499 25.03195,-24.8078 25.09191,-31.20404 l 0.0866,-9.24239 c 0.005,-0.51148 -20.43644,23.58765 -29.28571,30.71428 -11.44516,8.84269 -21.88806,15.68088 -31.42857,20.71429 l -21.42857,7.14286 c -9.76191,5.87197 -19.52381,11.24251 -29.28572,14.28571 -16.83019,2.33289 -32.46049,6.76557 -52.85714,2.85715 -1.28638,0.36754 3.82021,-5.63831 7.5,-11.42858 1.19968,-1.88774 -7.14286,-1.07143 -7.14286,-1.07143 -7.7958,12.06982 -5.69409,9.37552 -29.64285,28.92858 -6.49232,5.30068 -1.92261,-13.77812 2.85714,-27.85714 6.90586,-16.51107 18.88308,-32.85194 38.92857,-50.35714 7.95725,-6.36636 19.15215,-5.87689 28.92857,-6.78572 l -2.85714,-5.71429 c -1.57987,0.8777 -13.22591,-0.9639 -16.78572,-1.78571 -0.309,-9.56251 -6.93547,-43.41705 -1.07142,-41.07143 29.05686,13.04375 50.81134,-11.65584 75.71428,-15.71429 l 4.28572,-3.57142 c -20.55693,0.2582 -29.01869,6.34618 -51.78572,14.64285 -14.66565,0.94985 -28.04231,-0.59121 -27.85714,-5.71428 l 1.07143,-29.64286 -4.28572,-0.71429 c -0.41551,32.61335 -16.26777,55.78985 -7.85714,86.42858 -15.2592,4.38718 -20.60344,17.03682 -30.71429,25.71428 L 390.35715,378.79078 388.57143,366.64792 385,337.3622 l -5,0 c -0.95238,9.43627 -1.90476,12.87757 -2.85715,16.78572 C 361.02059,343.62963 345.82416,330.30687 340,314.50506 c 0.61522,-12.52317 -3.22905,-25.19595 2.5,-38.57143 l 3.57143,-16.42857 -5.35714,2.85715 L 335,270.93363 c -4.12349,24.29421 -2.91007,34.81487 -3.57143,47.85715 l -10.71428,-15.71429 -3.57143,4.28571 c 9.39391,15.45448 12.55727,18.44788 18.57143,27.14286 l 27.14285,25.71429 c 7.75802,7.14286 10.80443,15.0502 11.78572,22.85714 1.9996,15.90834 -0.27304,29.83204 -5.35715,39.28571 L 357.14286,444.50506 355,457.3622 c -1.27233,1.9085 -18.2693,-36.23815 -32.5,-51.24999 -15.08956,-15.91785 -29.54048,-32.13072 -52.14286,-41.78572 -14.5546,-6.21725 -40.65911,-12.65491 -58.21428,-11.25 -2.47787,0.1983 -5.76259,7.64798 5.35714,6.07143 13.86666,-1.966 15.17584,0.89723 26.07143,3.92857 15.48673,5.94184 29.48275,13.37439 39.28571,25 24.39306,22.23291 34.71025,35.95241 44.21703,65.72802 l 0.78297,17.12912 c -0.68443,8.63114 -1.97634,16.04731 -6.42857,17.14286 -4.79312,5.55822 -10.85945,2.52142 -17.85714,-0.71429 -13.40921,-6.20038 -17.70951,-12.08619 -22.14286,-18.57143 C 269.34533,462.54068 263.68499,449.86769 255,440.21935 c 0,0 -3.00623,-0.36018 -3.57143,0.71428 -0.84417,1.60479 2.14286,5 2.14286,5 l -35.35714,-6.42857 c -6.76403,-1.13002 -14.15734,-9.17106 -14.28572,-8.92857 0,0 -2.96521,1.68639 -2.5,3.92857 0.61944,2.98552 7.14286,5.71429 7.14286,5.71429 -27.84359,-0.99063 -27.65636,0.91337 -54.28572,13.57142 l 5,4.28572 c 7.86851,-4.66046 16.43432,-9.24751 34.28572,-12.85714 10.75268,0.70457 14.09137,-0.77145 39.64286,4.28571 18.68479,9.28571 30.20093,17.85714 34.64285,27.14286 6.06783,8.44496 10.84003,16.81359 24.64286,25.71428 -16.49423,1.29099 -24.19088,3.69572 -38.92857,7.5 l 1.78571,3.57143 c 7.26191,-2.47977 14.52381,-5.34203 21.78572,-3.21428 22.95719,1.86643 33.91167,4.24877 43.57143,7.85714 10.23254,8.09206 10.9193,8.28042 14.99999,12.85714 17.60337,35.31932 -10.65485,34.74486 0.71429,57.85715 l 5.71429,8.57142 c 1.35506,12.14286 -0.91358,24.28491 -4.28572,36.42857 -4.69011,16.88989 -10.08008,31.6645 -15.71428,45.71429 z"
       id="path3351"
       inkscape:connector-curvature="0"
       sodipodi:nodetypes="cccccsscacscccccccsscccccscscccccccccscccccccccccccccccccscccsssscccccsccsccssccccccccccccccsc" />
  </g>
</svg>
